<svg class="bob" font-family="arial" font-size="14" height="160" width="512" xmlns="http://www.w3.org/2000/svg">
<defs>
<marker id="triangle" markerHeight="8" markerWidth="8" orient="auto" refX="4" refY="2" viewBox="0 0 8 4">
<polygon class="fg_fill" points="0,0 0,4 8,2 0,0"/>
</marker>
<marker id="clear_triangle" markerHeight="10" markerWidth="10" orient="auto" refX="1" refY="7" viewBox="0 0 20 14">
<polygon class="bg_fill" points="2,2 2,12 18,7 2,2"/>
</marker>
<marker id="circle" markerHeight="5" markerWidth="5" orient="auto" refX="10" refY="10" viewBox="0 0 20 20">
<circle class="fg_fill" cx="10" cy="10" r="8"/>
</marker>
<marker id="square" markerHeight="5" markerWidth="5" orient="auto" refX="10" refY="10" viewBox="0 0 20 20">
<rect class="fg_fill" height="20" width="20" x="0" y="0"/>
</marker>
<marker id="open_circle" markerHeight="10" markerWidth="10" orient="auto" refX="10" refY="10" viewBox="0 0 20 20">
<circle class="bg_fill" cx="10" cy="10" r="4"/>
</marker>
<marker id="big_open_circle" markerHeight="20" markerWidth="20" orient="auto" refX="20" refY="20" viewBox="0 0 40 40">
<circle class="bg_fill" cx="20" cy="20" r="6"/>
</marker>
</defs>
<style type="text/css">

rect.backdrop {
    fill: white;
}
text{
    fill: black;
}

circle {
    fill: none;
    stroke: black;
    stroke-width: 2;
}

line {
    stroke: black;
    stroke-width: 2;
    stroke-opacity: 1;
    fill-opacity: 1;
    stroke-linecap: round;
    stroke-linejoin: miter;
}

path {
    fill: none;
    stroke: black;
    stroke-width: 2;
    stroke-opacity: 1;
    fill-opacity: 1;
    stroke-linecap: round;
    stroke-linejoin: miter;
}

line.dashed {
    stroke-dasharray: 5;
}

.fg_fill {
    fill: black;
}


.bg_fill {
    fill: white;
    stroke: black;
    stroke-width: 2;
}

tspan.head{
    fill: none;
    stroke: none;
}
    
</style>
<rect class="backdrop" height="160" width="512" x="0" y="0"/>
<g>
<line x1="56" x2="72" y1="128" y2="96"/>
<line x1="56" x2="72" y1="128" y2="160"/>
<line x1="72" x2="128" y1="96" y2="96"/>
<line x1="72" x2="128" y1="160" y2="160"/>
<line x1="128" x2="144" y1="96" y2="128"/>
<line x1="128" x2="144" y1="160" y2="128"/>
</g>
<g>
<line x1="60" x2="60" y1="40" y2="72"/>
<line x1="60" x2="116" y1="40" y2="40"/>
<line x1="60" x2="116" y1="72" y2="72"/>
<line x1="116" x2="116" y1="40" y2="72"/>
</g>
<g>
<line x1="148" x2="148" y1="44" y2="68"/>
<path d="M 148 68 A 4 4 0 0 0 152 72"/>
<path d="M 152 40 A 4 4 0 0 0 148 44"/>
</g>
<g>
<line x1="152" x2="200" y1="40" y2="40"/>
<path d="M 204 44 A 4 4 0 0 0 200 40"/>
</g>
<g>
<line x1="152" x2="200" y1="72" y2="72"/>
<path d="M 200 72 A 4 4 0 0 0 204 68"/>
</g>
<g>
<line x1="176" x2="192" y1="128" y2="96"/>
<line x1="176" x2="192" y1="128" y2="160"/>
<line x1="192" x2="208" y1="96" y2="128"/>
<line x1="192" x2="208" y1="160" y2="128"/>
</g>
<g>
<line x1="204" x2="204" y1="44" y2="68"/>
</g>
<g>
<line x1="224" x2="232" y1="96" y2="112"/>
<line x1="224" x2="288" y1="96" y2="96"/>
<line x1="288" x2="296" y1="96" y2="112"/>
<path d="M 232 128 A 16 16 0 0 0 232 112"/>
<path d="M 296 128 A 16 16 0 0 0 296 112"/>
</g>
<g>
<line x1="224" x2="232" y1="144" y2="128"/>
<line x1="224" x2="288" y1="144" y2="144"/>
<line x1="288" x2="296" y1="144" y2="128"/>
</g>
<g>
<line x1="240" x2="242" y1="64" y2="68"/>
<path d="M 240 48 A 16 16 0 0 0 240 64"/>
<path d="M 242 68 A 8 8 0 0 0 248 72"/>
</g>
<g>
<line x1="242" x2="240" y1="44" y2="48"/>
<path d="M 248 40 A 8 8 0 0 0 242 44"/>
</g>
<g>
<line x1="248" x2="296" y1="40" y2="40"/>
<path d="M 302 44 A 8 8 0 0 0 296 40"/>
</g>
<g>
<line x1="248" x2="296" y1="72" y2="72"/>
<path d="M 296 72 A 8 8 0 0 0 302 68"/>
</g>
<g>
<line x1="302" x2="304" y1="44" y2="48"/>
<path d="M 304 64 A 16 16 0 0 0 304 48"/>
</g>
<g>
<line x1="302" x2="304" y1="68" y2="64"/>
</g>
<g>
<line x1="344" x2="376" y1="72" y2="72"/>
<path d="M 342 68 A 4 4 0 0 0 344 72"/>
<path d="M 376 72 A 4 4 0 0 0 378 68"/>
</g>
<g>
<line marker-end="url(#triangle)" x1="344" x2="380" y1="104" y2="104"/>
</g>
<g>
<line marker-end="url(#triangle)" x1="352" x2="348" y1="120" y2="120"/>
<line x1="352" x2="384" y1="120" y2="120"/>
</g>
<g>
<line x1="360" x2="342" y1="32" y2="68"/>
<line x1="360" x2="378" y1="32" y2="68"/>
</g>
<g>
<line marker-end="url(#triangle)" x1="420" x2="420" y1="96" y2="140"/>
</g>
<g>
<line x1="428" x2="420" y1="48" y2="56"/>
<line x1="428" x2="436" y1="48" y2="40"/>
<line x1="428" x2="420" y1="64" y2="56"/>
<line x1="428" x2="436" y1="64" y2="72"/>
<line x1="444" x2="436" y1="32" y2="40"/>
<line x1="444" x2="452" y1="32" y2="24"/>
<line x1="444" x2="436" y1="80" y2="72"/>
<line x1="444" x2="452" y1="80" y2="88"/>
<line x1="460" x2="452" y1="32" y2="24"/>
<line x1="460" x2="468" y1="32" y2="40"/>
<line x1="460" x2="452" y1="80" y2="88"/>
<line x1="460" x2="468" y1="80" y2="72"/>
<line x1="476" x2="468" y1="48" y2="40"/>
<line x1="476" x2="484" y1="48" y2="56"/>
<line x1="476" x2="468" y1="64" y2="72"/>
<line x1="476" x2="484" y1="64" y2="56"/>
</g>
<g>
<line marker-end="url(#triangle)" x1="436" x2="436" y1="112" y2="100"/>
<line x1="436" x2="436" y1="112" y2="144"/>
</g>
<g>
<line x1="472" x2="488" y1="128" y2="96"/>
<line marker-end="url(#triangle)" x1="488" x2="494" y1="96" y2="84"/>
</g>
<g>
<line marker-end="url(#triangle)" x1="504" x2="490" y1="96" y2="124"/>
<line x1="504" x2="512" y1="96" y2="80"/>
</g>
<g>
<text x="49" y="12">
Basic
</text>
</g>
<g>
<text x="97" y="12">
shapes
</text>
</g>
<g>
<line marker-end="url(#triangle)" marker-start="url(#open_circle)" x1="12" x2="28" y1="8" y2="8"/>
</g>
</svg>
