<svg class="bob" font-family="arial" font-size="14" height="400" width="512" xmlns="http://www.w3.org/2000/svg">
<defs>
<marker id="triangle" markerHeight="8" markerWidth="8" orient="auto" refX="4" refY="2" viewBox="0 0 8 4">
<polygon class="fg_fill" points="0,0 0,4 8,2 0,0"/>
</marker>
<marker id="clear_triangle" markerHeight="10" markerWidth="10" orient="auto" refX="1" refY="7" viewBox="0 0 20 14">
<polygon class="bg_fill" points="2,2 2,12 18,7 2,2"/>
</marker>
<marker id="circle" markerHeight="5" markerWidth="5" orient="auto" refX="10" refY="10" viewBox="0 0 20 20">
<circle class="fg_fill" cx="10" cy="10" r="8"/>
</marker>
<marker id="square" markerHeight="5" markerWidth="5" orient="auto" refX="10" refY="10" viewBox="0 0 20 20">
<rect class="fg_fill" height="20" width="20" x="0" y="0"/>
</marker>
<marker id="open_circle" markerHeight="10" markerWidth="10" orient="auto" refX="10" refY="10" viewBox="0 0 20 20">
<circle class="bg_fill" cx="10" cy="10" r="4"/>
</marker>
<marker id="big_open_circle" markerHeight="20" markerWidth="20" orient="auto" refX="20" refY="20" viewBox="0 0 40 40">
<circle class="bg_fill" cx="20" cy="20" r="6"/>
</marker>
</defs>
<style type="text/css">

rect.backdrop {
    fill: white;
}
text{
    fill: black;
}

circle {
    fill: none;
    stroke: black;
    stroke-width: 2;
}

line {
    stroke: black;
    stroke-width: 2;
    stroke-opacity: 1;
    fill-opacity: 1;
    stroke-linecap: round;
    stroke-linejoin: miter;
}

path {
    fill: none;
    stroke: black;
    stroke-width: 2;
    stroke-opacity: 1;
    fill-opacity: 1;
    stroke-linecap: round;
    stroke-linejoin: miter;
}

line.dashed {
    stroke-dasharray: 5;
}

.fg_fill {
    fill: black;
}


.bg_fill {
    fill: white;
    stroke: black;
    stroke-width: 2;
}

tspan.head{
    fill: none;
    stroke: none;
}
    
</style>
<rect class="backdrop" height="400" width="512" x="0" y="0"/>
<g>
<line x1="32" x2="34" y1="352" y2="356"/>
<path d="M 32 336 A 16 16 0 0 0 32 352"/>
<path d="M 34 356 A 8 8 0 0 0 40 360"/>
</g>
<g>
<line x1="34" x2="32" y1="332" y2="336"/>
<path d="M 40 328 A 8 8 0 0 0 34 332"/>
</g>
<g>
<line x1="40" x2="52" y1="328" y2="328"/>
</g>
<g>
<line x1="40" x2="48" y1="360" y2="360"/>
<path d="M 54 364 A 8 8 0 0 0 48 360"/>
</g>
<g>
<line x1="54" x2="68" y1="364" y2="392"/>
<line x1="68" x2="80" y1="392" y2="368"/>
</g>
<g>
<line x1="56" x2="72" y1="128" y2="96"/>
<line x1="56" x2="72" y1="128" y2="160"/>
<line x1="72" x2="128" y1="96" y2="96"/>
<line x1="72" x2="128" y1="160" y2="160"/>
<line x1="128" x2="144" y1="96" y2="128"/>
<line x1="128" x2="144" y1="160" y2="128"/>
</g>
<g>
<line x1="60" x2="60" y1="40" y2="72"/>
<line x1="60" x2="116" y1="40" y2="40"/>
<line x1="60" x2="116" y1="72" y2="72"/>
<line x1="116" x2="116" y1="40" y2="72"/>
</g>
<g>
<line x1="64" x2="66" y1="208" y2="212"/>
<path d="M 64 192 A 16 16 0 0 0 64 208"/>
<path d="M 66 212 A 8 8 0 0 0 72 216"/>
</g>
<g>
<line x1="64" x2="80" y1="336" y2="368"/>
<line marker-start="url(#open_circle)" x1="76" x2="64" y1="312" y2="336"/>
<line marker-start="url(#open_circle)" x1="76" x2="92" y1="312" y2="312"/>
</g>
<g>
<line x1="66" x2="64" y1="188" y2="192"/>
<path d="M 72 184 A 8 8 0 0 0 66 188"/>
</g>
<g>
<line marker-end="url(#circle)" x1="66" x2="44" y1="300" y2="344"/>
<path d="M 72 296 A 8 8 0 0 0 66 300"/>
</g>
<g>
<line x1="72" x2="160" y1="184" y2="184"/>
<path d="M 166 188 A 8 8 0 0 0 160 184"/>
</g>
<g>
<line x1="72" x2="116" y1="216" y2="216"/>
<line x1="116" x2="116" y1="216" y2="240"/>
</g>
<g>
<line x1="72" x2="96" y1="296" y2="296"/>
<path d="M 98 300 A 4 4 0 0 0 96 296"/>
</g>
<g>
<line x1="72" x2="98" y1="352" y2="300"/>
</g>
<g>
<line marker-end="url(#triangle)" x1="84" x2="100" y1="328" y2="328"/>
</g>
<g>
<line x1="92" x2="112" y1="312" y2="312"/>
</g>
<g>
<line x1="130" x2="120" y1="220" y2="240"/>
<path d="M 136 216 A 8 8 0 0 0 130 220"/>
</g>
<g>
<line x1="136" x2="160" y1="216" y2="216"/>
<path d="M 160 216 A 8 8 0 0 0 166 212"/>
</g>
<g>
<line x1="144" x2="154" y1="368" y2="388"/>
<line x1="170" x2="144" y1="316" y2="368"/>
<path d="M 154 388 A 8 8 0 0 0 160 392"/>
<path d="M 176 312 A 8 8 0 0 0 170 316"/>
</g>
<g>
<line x1="148" x2="148" y1="44" y2="68"/>
<path d="M 148 68 A 4 4 0 0 0 152 72"/>
<path d="M 152 40 A 4 4 0 0 0 148 44"/>
</g>
<g>
<line x1="152" x2="200" y1="40" y2="40"/>
<path d="M 204 44 A 4 4 0 0 0 200 40"/>
</g>
<g>
<line x1="152" x2="200" y1="72" y2="72"/>
<path d="M 200 72 A 4 4 0 0 0 204 68"/>
</g>
<g>
<line x1="152" x2="162" y1="352" y2="372"/>
<path d="M 162 372 A 8 8 0 0 0 168 376"/>
</g>
<g>
<line x1="160" x2="176" y1="392" y2="392"/>
<path d="M 176 392 A 8 8 0 0 0 182 388"/>
</g>
<g>
<line x1="164" x2="184" y1="328" y2="328"/>
<path d="M 190 332 A 8 8 0 0 0 184 328"/>
</g>
<g>
<line x1="166" x2="168" y1="188" y2="192"/>
<path d="M 168 208 A 16 16 0 0 0 168 192"/>
</g>
<g>
<line x1="166" x2="168" y1="212" y2="208"/>
</g>
<g>
<line x1="172" x2="188" y1="360" y2="360"/>
</g>
<g>
<line x1="172" x2="168" y1="376" y2="376"/>
<line x1="172" x2="176" y1="376" y2="376"/>
<path d="M 176 376 A 8 8 0 0 0 182 372"/>
<line marker-start="url(#big_open_circle)" x1="172" x2="172" y1="344" y2="376"/>
</g>
<g>
<line x1="176" x2="192" y1="128" y2="96"/>
<line x1="176" x2="192" y1="128" y2="160"/>
<line x1="192" x2="208" y1="96" y2="128"/>
<line x1="192" x2="208" y1="160" y2="128"/>
</g>
<g>
<line x1="176" x2="192" y1="312" y2="312"/>
<path d="M 198 316 A 8 8 0 0 0 192 312"/>
</g>
<g>
<line x1="182" x2="192" y1="372" y2="352"/>
<path d="M 192 352 A 16 16 0 0 0 192 336"/>
</g>
<g>
<line x1="182" x2="200" y1="388" y2="352"/>
<line x1="204" x2="200" y1="344" y2="352"/>
</g>
<g>
<line x1="190" x2="192" y1="332" y2="336"/>
</g>
<g>
<line x1="198" x2="204" y1="316" y2="328"/>
<line x1="204" x2="204" y1="328" y2="336"/>
<line x1="204" x2="204" y1="336" y2="344"/>
</g>
<g>
<line x1="204" x2="204" y1="44" y2="68"/>
</g>
<g>
<line x1="224" x2="232" y1="96" y2="112"/>
<line x1="224" x2="288" y1="96" y2="96"/>
<line x1="288" x2="296" y1="96" y2="112"/>
<path d="M 232 128 A 16 16 0 0 0 232 112"/>
<path d="M 296 128 A 16 16 0 0 0 296 112"/>
</g>
<g>
<line x1="224" x2="232" y1="144" y2="128"/>
<line x1="224" x2="288" y1="144" y2="144"/>
<line x1="288" x2="296" y1="144" y2="128"/>
</g>
<g>
<line x1="224" x2="226" y1="208" y2="212"/>
<path d="M 224 192 A 16 16 0 0 0 224 208"/>
<path d="M 226 212 A 8 8 0 0 0 232 216"/>
</g>
<g>
<line x1="226" x2="224" y1="188" y2="192"/>
</g>
<g>
<line marker-end="url(#triangle)" x1="232" x2="236" y1="216" y2="216"/>
</g>
<g>
<line x1="240" x2="242" y1="64" y2="68"/>
<path d="M 240 48 A 16 16 0 0 0 240 64"/>
<path d="M 242 68 A 8 8 0 0 0 248 72"/>
</g>
<g>
<line x1="242" x2="240" y1="44" y2="48"/>
<path d="M 248 40 A 8 8 0 0 0 242 44"/>
</g>
<g>
<line x1="248" x2="296" y1="40" y2="40"/>
<path d="M 302 44 A 8 8 0 0 0 296 40"/>
</g>
<g>
<line x1="248" x2="296" y1="72" y2="72"/>
<path d="M 296 72 A 8 8 0 0 0 302 68"/>
</g>
<g>
<line x1="252" x2="252" y1="332" y2="356"/>
<path d="M 252 356 A 16 16 0 0 0 254 364"/>
<path d="M 256 328 A 4 4 0 0 0 252 332"/>
</g>
<g>
<line x1="254" x2="264" y1="364" y2="384"/>
<line x1="264" x2="280" y1="384" y2="384"/>
<line x1="280" x2="288" y1="384" y2="368"/>
<line x1="292" x2="288" y1="360" y2="368"/>
</g>
<g>
<line x1="256" x2="272" y1="328" y2="328"/>
<line x1="272" x2="280" y1="328" y2="328"/>
<line x1="280" x2="292" y1="328" y2="328"/>
</g>
<g>
<line marker-end="url(#triangle)" x1="264" x2="260" y1="184" y2="184"/>
<path d="M 270 188 A 8 8 0 0 0 264 184"/>
</g>
<g>
<line x1="270" x2="272" y1="188" y2="192"/>
<path d="M 272 208 A 16 16 0 0 0 272 192"/>
</g>
<g>
<line x1="272" x2="270" y1="208" y2="212"/>
</g>
<g>
<line x1="276" x2="276" y1="304" y2="320"/>
<line x1="276" x2="280" y1="304" y2="304"/>
<line x1="280" x2="288" y1="304" y2="304"/>
<line x1="288" x2="292" y1="304" y2="304"/>
<line x1="292" x2="292" y1="304" y2="320"/>
<line x1="292" x2="292" y1="320" y2="352"/>
<line x1="292" x2="292" y1="352" y2="360"/>
<path d="M 276 336 A 10 10 0 0 0 276 320"/>
</g>
<g>
<line marker-end="url(#circle)" x1="276" x2="276" y1="336" y2="360"/>
</g>
<g>
<line x1="276" x2="292" y1="344" y2="344"/>
</g>
<g>
<line x1="280" x2="288" y1="312" y2="312"/>
</g>
<g>
<line x1="302" x2="304" y1="44" y2="48"/>
<path d="M 304 64 A 16 16 0 0 0 304 48"/>
</g>
<g>
<line x1="302" x2="304" y1="68" y2="64"/>
</g>
<g>
<line x1="320" x2="322" y1="208" y2="212"/>
<path d="M 320 192 A 16 16 0 0 0 320 208"/>
</g>
<g>
<line x1="322" x2="320" y1="188" y2="192"/>
<path d="M 328 184 A 8 8 0 0 0 322 188"/>
</g>
<g>
<line marker-end="url(#triangle)" x1="328" x2="332" y1="184" y2="184"/>
</g>
<g>
<line x1="332" x2="332" y1="332" y2="356"/>
<path d="M 332 356 A 4 4 0 0 0 336 360"/>
<path d="M 336 328 A 4 4 0 0 0 332 332"/>
</g>
<g>
<line marker-end="url(#triangle)" x1="332" x2="348" y1="344" y2="344"/>
</g>
<g>
<line x1="336" x2="352" y1="328" y2="328"/>
<path d="M 356 332 A 4 4 0 0 0 352 328"/>
<path d="M 360 328 A 4 4 0 0 0 356 332"/>
</g>
<g>
<line x1="336" x2="352" y1="360" y2="360"/>
<path d="M 352 360 A 4 4 0 0 0 356 356"/>
<path d="M 356 356 A 4 4 0 0 0 360 360"/>
</g>
<g>
<line x1="344" x2="376" y1="72" y2="72"/>
<path d="M 342 68 A 4 4 0 0 0 344 72"/>
<path d="M 376 72 A 4 4 0 0 0 378 68"/>
</g>
<g>
<line marker-end="url(#triangle)" x1="344" x2="380" y1="104" y2="104"/>
</g>
<g>
<line marker-end="url(#triangle)" x1="352" x2="348" y1="120" y2="120"/>
<line x1="352" x2="384" y1="120" y2="120"/>
</g>
<g>
<line marker-end="url(#triangle)" x1="352" x2="348" y1="216" y2="216"/>
<path d="M 352 216 A 8 8 0 0 0 358 212"/>
</g>
<g>
<line x1="356" x2="356" y1="332" y2="356"/>
</g>
<g>
<line x1="358" x2="360" y1="188" y2="192"/>
<path d="M 360 208 A 16 16 0 0 0 360 192"/>
</g>
<g>
<line x1="358" x2="360" y1="212" y2="208"/>
</g>
<g>
<line x1="360" x2="342" y1="32" y2="68"/>
<line x1="360" x2="378" y1="32" y2="68"/>
</g>
<g>
<line x1="360" x2="368" y1="328" y2="328"/>
<path d="M 372 332 A 4 4 0 0 0 368 328"/>
</g>
<g>
<line x1="360" x2="368" y1="360" y2="360"/>
<path d="M 368 360 A 4 4 0 0 0 372 356"/>
</g>
<g>
<line x1="372" x2="372" y1="332" y2="356"/>
</g>
<g>
<line x1="408" x2="416" y1="352" y2="368"/>
<line x1="416" x2="418" y1="368" y2="372"/>
<path d="M 408 336 A 16 16 0 0 0 408 352"/>
<path d="M 418 372 A 8 8 0 0 0 424 376"/>
</g>
<g>
<line x1="412" x2="408" y1="344" y2="344"/>
<line x1="412" x2="416" y1="344" y2="344"/>
<line x1="412" x2="424" y1="344" y2="320"/>
<line x1="412" x2="424" y1="344" y2="368"/>
</g>
<g>
<line x1="418" x2="408" y1="316" y2="336"/>
<path d="M 424 312 A 8 8 0 0 0 418 316"/>
</g>
<g>
<line marker-end="url(#triangle)" x1="420" x2="420" y1="96" y2="140"/>
</g>
<g>
<line x1="424" x2="440" y1="312" y2="312"/>
<path d="M 446 316 A 8 8 0 0 0 440 312"/>
</g>
<g>
<line marker-end="url(#circle)" x1="424" x2="436" y1="344" y2="344"/>
<line marker-start="url(#circle)" x1="436" x2="448" y1="344" y2="344"/>
</g>
<g>
<line x1="424" x2="440" y1="376" y2="376"/>
<path d="M 440 376 A 8 8 0 0 0 446 372"/>
</g>
<g>
<line x1="428" x2="420" y1="48" y2="56"/>
<line x1="428" x2="436" y1="48" y2="40"/>
<line x1="428" x2="420" y1="64" y2="56"/>
<line x1="428" x2="436" y1="64" y2="72"/>
<line x1="444" x2="436" y1="32" y2="40"/>
<line x1="444" x2="452" y1="32" y2="24"/>
<line x1="444" x2="436" y1="80" y2="72"/>
<line x1="444" x2="452" y1="80" y2="88"/>
<line x1="460" x2="452" y1="32" y2="24"/>
<line x1="460" x2="468" y1="32" y2="40"/>
<line x1="460" x2="452" y1="80" y2="88"/>
<line x1="460" x2="468" y1="80" y2="72"/>
<line x1="476" x2="468" y1="48" y2="40"/>
<line x1="476" x2="484" y1="48" y2="56"/>
<line x1="476" x2="468" y1="64" y2="72"/>
<line x1="476" x2="484" y1="64" y2="56"/>
</g>
<g>
<line marker-end="url(#triangle)" x1="436" x2="436" y1="112" y2="100"/>
<line x1="436" x2="436" y1="112" y2="144"/>
</g>
<g>
<line x1="446" x2="456" y1="316" y2="336"/>
<path d="M 456 352 A 16 16 0 0 0 456 336"/>
</g>
<g>
<line x1="446" x2="448" y1="372" y2="368"/>
<line x1="448" x2="456" y1="368" y2="352"/>
</g>
<g>
<line marker-end="url(#triangle)" x1="448" x2="442" y1="192" y2="180"/>
<line x1="448" x2="464" y1="192" y2="224"/>
</g>
<g>
<line marker-end="url(#triangle)" x1="464" x2="486" y1="176" y2="220"/>
</g>
<g>
<line x1="472" x2="488" y1="128" y2="96"/>
<line marker-end="url(#triangle)" x1="488" x2="494" y1="96" y2="84"/>
</g>
<g>
<line marker-end="url(#triangle)" x1="504" x2="490" y1="96" y2="124"/>
<line x1="504" x2="512" y1="96" y2="80"/>
</g>
<g>
<text x="49" y="12">
Basic
</text>
</g>
<g>
<text x="49" y="284">
Quick
</text>
</g>
<g>
<text x="97" y="12">
shapes
</text>
</g>
<g>
<text x="97" y="284">
logo
</text>
</g>
<g>
<text x="137" y="284">
scribbles
</text>
</g>
<g>
<circle class="open" cx="436" cy="344" r="16"/>
</g>
<g>
<line marker-end="url(#triangle)" marker-start="url(#open_circle)" x1="12" x2="28" y1="8" y2="8"/>
</g>
<g>
<line marker-end="url(#triangle)" marker-start="url(#open_circle)" x1="12" x2="28" y1="280" y2="280"/>
</g>
<g>
<line marker-end="url(#open_circle)" x1="60" x2="76" y1="312" y2="312"/>
</g>
</svg>
